<?xml version="1.0" encoding="UTF-8" standalone="no"?>
<!-- Created with Inkscape (http://www.inkscape.org/) -->

<svg
   width="95.671997mm"
   height="91.324997mm"
   viewBox="0 0 95.671997 91.324997"
   version="1.1"
   id="svg8"
   inkscape:version="1.1.2 (0a00cf5339, 2022-02-04)"
   sodipodi:docname="frontpage.svg"
   xmlns:inkscape="http://www.inkscape.org/namespaces/inkscape"
   xmlns:sodipodi="http://sodipodi.sourceforge.net/DTD/sodipodi-0.dtd"
   xmlns:xlink="http://www.w3.org/1999/xlink"
   xmlns="http://www.w3.org/2000/svg"
   xmlns:svg="http://www.w3.org/2000/svg"
   xmlns:rdf="http://www.w3.org/1999/02/22-rdf-syntax-ns#"
   xmlns:cc="http://creativecommons.org/ns#"
   xmlns:dc="http://purl.org/dc/elements/1.1/">
  <defs
     id="defs2">
    <inkscape:path-effect
       effect="join_type"
       id="path-effect4755"
       is_visible="true"
       linecap_type="butt"
       line_width="1.01369"
       linejoin_type="round"
       miter_limit="100"
       attempt_force_join="true"
       lpeversion="0" />
    <inkscape:path-effect
       effect="join_type"
       id="path-effect4755-4"
       is_visible="true"
       linecap_type="butt"
       line_width="1.01369"
       linejoin_type="round"
       miter_limit="100"
       attempt_force_join="true"
       lpeversion="0" />
    <inkscape:path-effect
       effect="join_type"
       id="path-effect4755-4-5"
       is_visible="true"
       linecap_type="butt"
       line_width="1.01369"
       linejoin_type="round"
       miter_limit="100"
       attempt_force_join="true"
       lpeversion="0" />
  </defs>
  <sodipodi:namedview
     id="base"
     pagecolor="#ffffff"
     bordercolor="#666666"
     borderopacity="1.0"
     inkscape:pageopacity="0.0"
     inkscape:pageshadow="2"
     inkscape:zoom="1.4"
     inkscape:cx="614.64286"
     inkscape:cy="217.5"
     inkscape:document-units="mm"
     inkscape:current-layer="layer1"
     showgrid="false"
     inkscape:window-width="2560"
     inkscape:window-height="1365"
     inkscape:window-x="0"
     inkscape:window-y="0"
     inkscape:window-maximized="1"
     inkscape:pagecheckerboard="0" />
  <metadata
     id="metadata5">
    <rdf:RDF>
      <cc:Work
         rdf:about="">
        <dc:format>image/svg+xml</dc:format>
        <dc:type
           rdf:resource="http://purl.org/dc/dcmitype/StillImage" />
      </cc:Work>
    </rdf:RDF>
  </metadata>
  <g
     inkscape:label="Layer 1"
     inkscape:groupmode="layer"
     id="layer1">
    <ellipse
       style="opacity:1;vector-effect:none;fill:#3d97d3;fill-opacity:1;stroke:#00000f;stroke-width:0.8;stroke-linecap:round;stroke-linejoin:miter;stroke-miterlimit:4;stroke-dasharray:none;stroke-dashoffset:0;stroke-opacity:0"
       id="path815"
       cx="47.836014"
       cy="45.662651"
       rx="47.436012"
       ry="45.26265" />
    <path
       style="opacity:1;vector-effect:none;fill:none;fill-opacity:1;fill-rule:nonzero;stroke:#ffffff;stroke-width:3;stroke-linecap:round;stroke-linejoin:round;stroke-miterlimit:4;stroke-dasharray:none;stroke-dashoffset:0;stroke-opacity:1"
       d="M 10.629314,49.634002 H 85.19752 v 18.57523 H 10.629314 Z"
       id="rect823"
       inkscape:connector-curvature="0"
       sodipodi:nodetypes="ccccc" />
    <path
       style="opacity:1;vector-effect:none;fill:none;fill-opacity:1;stroke:#ffffff;stroke-width:1.2;stroke-linecap:butt;stroke-linejoin:miter;stroke-miterlimit:4;stroke-dasharray:none;stroke-dashoffset:0;stroke-opacity:1"
       d="M 15.320617,63.380292 H 47.968311"
       id="path4527"
       inkscape:connector-curvature="0" />
    <path
       style="opacity:1;vector-effect:none;fill:none;fill-opacity:1;stroke:#ffffff;stroke-width:1.2;stroke-linecap:butt;stroke-linejoin:miter;stroke-miterlimit:4;stroke-dasharray:none;stroke-dashoffset:0;stroke-opacity:1"
       d="M 15.320617,61.263612 H 47.968311"
       id="path4527-6-9"
       inkscape:connector-curvature="0" />
    <path
       style="opacity:1;vector-effect:none;fill:none;fill-opacity:1;stroke:#ffffff;stroke-width:1.2;stroke-linecap:butt;stroke-linejoin:miter;stroke-miterlimit:4;stroke-dasharray:none;stroke-dashoffset:0;stroke-opacity:1"
       d="M 15.320617,59.146932 H 47.968311"
       id="path4527-6-9-9-2"
       inkscape:connector-curvature="0" />
    <path
       style="opacity:1;vector-effect:none;fill:none;fill-opacity:1;stroke:#ffffff;stroke-width:1.2;stroke-linecap:butt;stroke-linejoin:miter;stroke-miterlimit:4;stroke-dasharray:none;stroke-dashoffset:0;stroke-opacity:1"
       d="M 15.320617,57.030252 H 47.968311"
       id="path4527-6-9-9-2-6-6-3"
       inkscape:connector-curvature="0" />
    <path
       style="opacity:1;vector-effect:none;fill:#ffffff;fill-opacity:1;fill-rule:nonzero;stroke:#ffffff;stroke-width:0.73;stroke-linecap:round;stroke-linejoin:round;stroke-miterlimit:4;stroke-dasharray:none;stroke-dashoffset:0;stroke-opacity:1"
       d="M 78.523894,55.197225 78.017049,54.69038 v 1.287439 l 0.506845,-0.506845 h -1.834248 l 0.506845,0.506845 V 54.69038 l -0.506845,0.506845 z m -2.341093,0.780594 a 0.506845,0.506845 0 0 0 0.506845,0.506845 h 1.834248 a 0.506845,0.506845 0 0 0 0.506845,-0.506845 V 54.69038 a 0.506845,0.506845 0 0 0 -0.506845,-0.506845 h -1.834248 a 0.506845,0.506845 0 0 0 -0.506845,0.506845 z"
       id="rect4752"
       inkscape:path-effect="#path-effect4755"
       inkscape:original-d="m 76.689646,54.69038 h 1.834248 v 1.287439 h -1.834248 z"
       inkscape:connector-curvature="0" />
    <path
       style="opacity:1;vector-effect:none;fill:#ffffff;fill-opacity:1;fill-rule:nonzero;stroke:#ffffff;stroke-width:0.73;stroke-linecap:round;stroke-linejoin:round;stroke-miterlimit:4;stroke-dasharray:none;stroke-dashoffset:0;stroke-opacity:1"
       d="M 74.290558,55.197225 73.783713,54.69038 v 1.28744 l 0.506845,-0.506845 H 72.45631 l 0.506845,0.506845 v -1.28744 l -0.506845,0.506845 z m -2.341093,0.780595 a 0.506845,0.506845 0 0 0 0.506845,0.506845 h 1.834248 A 0.506845,0.506845 0 0 0 74.797403,55.97782 V 54.69038 A 0.506845,0.506845 0 0 0 74.290558,54.183535 H 72.45631 a 0.506845,0.506845 0 0 0 -0.506845,0.506845 z"
       id="rect4752-0"
       inkscape:path-effect="#path-effect4755-4"
       inkscape:original-d="m 72.45631,54.69038 h 1.834248 v 1.28744 H 72.45631 Z"
       inkscape:connector-curvature="0" />
    <path
       style="opacity:1;vector-effect:none;fill:#ffffff;fill-opacity:1;fill-rule:nonzero;stroke:#ffffff;stroke-width:0.73;stroke-linecap:round;stroke-linejoin:round;stroke-miterlimit:4;stroke-dasharray:none;stroke-dashoffset:0;stroke-opacity:1"
       d="M 70.057222,55.197225 69.550377,54.69038 v 1.28744 l 0.506845,-0.506845 h -1.834248 l 0.506845,0.506845 v -1.28744 l -0.506845,0.506845 z m -2.341093,0.780595 a 0.506845,0.506845 0 0 0 0.506845,0.506845 h 1.834248 a 0.506845,0.506845 0 0 0 0.506845,-0.506845 v -1.28744 a 0.506845,0.506845 0 0 0 -0.506845,-0.506845 h -1.834248 a 0.506845,0.506845 0 0 0 -0.506845,0.506845 z"
       id="rect4752-0-9"
       inkscape:path-effect="#path-effect4755-4-5"
       inkscape:original-d="m 68.222974,54.69038 h 1.834248 v 1.28744 h -1.834248 z"
       inkscape:connector-curvature="0" />
    <path
       style="opacity:1;vector-effect:none;fill:none;fill-opacity:1;fill-rule:nonzero;stroke:#ffffff;stroke-width:1.4306;stroke-linecap:round;stroke-linejoin:round;stroke-miterlimit:4;stroke-dasharray:none;stroke-dashoffset:0;stroke-opacity:1"
       d="m 54.11368,22.055023 27.72086,-0.0956 c -0.89465,0.924364 -1.90953,3.84553 0.20316,5.854819 H 54.11369 c -1.50924,0 -2.72428,-1.21503 -2.72428,-2.724284 v -0.310667 c 0,-1.509252 1.21504,-2.724283 2.72428,-2.724283 z"
       id="rect4820"
       inkscape:connector-curvature="0"
       sodipodi:nodetypes="cccssssc" />
    <path
       style="opacity:1;vector-effect:none;fill:none;fill-opacity:1;fill-rule:nonzero;stroke:#ffffff;stroke-width:1.4306;stroke-linecap:round;stroke-linejoin:round;stroke-miterlimit:4;stroke-dasharray:none;stroke-dashoffset:0;stroke-opacity:1"
       d="M 88.85763,29.739683 58.26421,29.633665 c 0.98735,1.02523 2.10741,4.265149 -0.2242,6.493685 H 88.8576 c 1.66565,0 3.0066,-1.34761 3.0066,-3.021552 v -0.344566 c 0,-1.673939 -1.34095,-3.021551 -3.0066,-3.021551 z"
       id="rect4820-6"
       inkscape:connector-curvature="0"
       sodipodi:nodetypes="cccssssc" />
    <path
       style="opacity:0;vector-effect:none;fill:none;fill-opacity:1;fill-rule:nonzero;stroke:#ffffff;stroke-width:1.4306;stroke-linecap:round;stroke-linejoin:round;stroke-miterlimit:4;stroke-dasharray:none;stroke-dashoffset:0;stroke-opacity:1"
       d="M 84.81457,14.67247 59.07914,14.5814 c 0.83059,0.880657 1.77277,3.663697 -0.1886,5.577977 h 25.92402 c 1.40115,0 2.52916,-1.157577 2.52916,-2.595468 v -0.295978 c 0,-1.437887 -1.12801,-2.595466 -2.52916,-2.595466 z"
       id="rect4820-6-4"
       inkscape:connector-curvature="0"
       sodipodi:nodetypes="cccssssc" />
    <path
       style="opacity:1;vector-effect:none;fill:none;fill-opacity:1;fill-rule:nonzero;stroke:#ffffff;stroke-width:1.4306;stroke-linecap:round;stroke-linejoin:round;stroke-miterlimit:4;stroke-dasharray:none;stroke-dashoffset:0;stroke-opacity:1"
       d="m 51.83866,38.401238 30.74127,-0.123466 c -0.99213,1.19334 -2.11759,4.9645 0.22529,7.55845 H 51.83867 c -1.673681,0 -3.021096,-1.56858 -3.021096,-3.517 v -0.40106 c 0,-1.94842 1.347415,-3.517004 3.021096,-3.517004 z"
       id="rect4820-7"
       inkscape:connector-curvature="0"
       sodipodi:nodetypes="cccssssc" />
    <path
       style="fill:none;stroke:#ffffff;stroke-width:1.14448;stroke-linecap:round;stroke-linejoin:bevel;stroke-miterlimit:4;stroke-dasharray:none;stroke-opacity:1"
       d="m 52.56034,40.766602 c -0.0717,-0.0478 23.34763,0 23.34763,0"
       id="path4897"
       inkscape:connector-curvature="0" />
    <path
       style="fill:none;stroke:#ffffff;stroke-width:1.14448;stroke-linecap:round;stroke-linejoin:bevel;stroke-miterlimit:4;stroke-dasharray:none;stroke-opacity:1"
       d="m 52.43486,43.452572 c -0.0717,-0.0478 6.85852,0 6.85852,0"
       id="path4897-2"
       inkscape:connector-curvature="0"
       sodipodi:nodetypes="cc" />
    <path
       style="fill:none;stroke:#ffffff;stroke-width:1.14448;stroke-linecap:round;stroke-linejoin:bevel;stroke-miterlimit:4;stroke-dasharray:none;stroke-opacity:1"
       d="m 61.61889,43.404802 c -0.0717,-0.0478 8.41182,0 8.41182,0"
       id="path4897-2-8"
       inkscape:connector-curvature="0"
       sodipodi:nodetypes="cc" />
    <path
       style="fill:none;stroke:#ffffff;stroke-width:1.14448;stroke-linecap:round;stroke-linejoin:bevel;stroke-miterlimit:4;stroke-dasharray:none;stroke-opacity:1"
       d="m 80.63701,32.698806 c -0.0717,-0.04778 8.41182,0 8.41182,0"
       id="path4897-2-8-9"
       inkscape:connector-curvature="0"
       sodipodi:nodetypes="cc" />
    <path
       style="fill:none;stroke:#ffffff;stroke-width:1.14448;stroke-linecap:round;stroke-linejoin:bevel;stroke-miterlimit:4;stroke-dasharray:none;stroke-opacity:1"
       d="m 75.83365,34.212861 c -0.0717,-0.04778 8.84198,0 8.84198,0"
       id="path4897-2-8-9-6"
       inkscape:connector-curvature="0"
       sodipodi:nodetypes="cc" />
    <path
       style="fill:none;stroke:#ffffff;stroke-width:1.14448;stroke-linecap:round;stroke-linejoin:bevel;stroke-miterlimit:4;stroke-dasharray:none;stroke-opacity:1"
       d="m 54.07469,24.167478 c -0.0717,-0.04778 20.71892,0 20.71892,0"
       id="path4897-2-8-9-6-0"
       inkscape:connector-curvature="0"
       sodipodi:nodetypes="cc" />
    <path
       style="fill:none;stroke:#ffffff;stroke-width:1.14448;stroke-linecap:round;stroke-linejoin:bevel;stroke-miterlimit:4;stroke-dasharray:none;stroke-opacity:1"
       d="m 54.68122,26.02378 c -0.0717,-0.04778 10.56258,0 10.56258,0"
       id="path4897-2-8-9-6-0-2"
       inkscape:connector-curvature="0"
       sodipodi:nodetypes="cc" />
    <path
       style="fill:none;stroke:#ffffff;stroke-width:1.14448;stroke-linecap:round;stroke-linejoin:bevel;stroke-miterlimit:4;stroke-dasharray:none;stroke-opacity:1"
       d="m 67.10778,26.02378 c -0.0717,-0.04778 7.55153,0 7.55153,0"
       id="path4897-2-8-9-6-0-2-1"
       inkscape:connector-curvature="0"
       sodipodi:nodetypes="cc" />
    <path
       style="opacity:0;fill:none;stroke:#ffffff;stroke-width:1.14448;stroke-linecap:round;stroke-linejoin:bevel;stroke-miterlimit:4;stroke-dasharray:none;stroke-opacity:1"
       d="m 76.59494,17.930288 c -0.0717,-0.04778 7.55151,0 7.55151,0"
       id="path4897-2-8-9-6-0-2-1-0"
       inkscape:connector-curvature="0"
       sodipodi:nodetypes="cc" />
    <g
       id="g5114"
       style="stroke-width:0.4;stroke-miterlimit:4;stroke-dasharray:none"
       transform="matrix(1.4306024,0,0,1.4306024,-100.04762,-106.89001)">
      <path
         style="opacity:1;vector-effect:none;fill:#3d97d3;fill-opacity:1;stroke:#ffffff;stroke-width:0.7;stroke-linecap:butt;stroke-linejoin:miter;stroke-miterlimit:4;stroke-dasharray:none;stroke-dashoffset:0;stroke-opacity:1"
         d="m 129.23019,97.590141 h 2.43698 v 6.624999 l -1.21849,-1.36976 -1.21849,1.36976 z"
         id="rect5109"
         inkscape:connector-curvature="0"
         sodipodi:nodetypes="cccccc" />
    </g>
    <path
       style="opacity:1;vector-effect:none;fill:none;fill-opacity:1;stroke:#ffffff;stroke-width:0.870502;stroke-linecap:round;stroke-linejoin:round;stroke-miterlimit:4;stroke-dasharray:none;stroke-dashoffset:0;stroke-opacity:1"
       d="m 24.480667,32.744831 c 1.691415,2.952179 0,0 3.974053,6.943651 3.974052,6.94364 -2.232299,6.73116 -4.647539,6.73116 h -5.757994 c -2.41524,0 -8.061214,0.11613 -4.071739,-6.73116 3.989477,-6.847312 2.303203,-3.863017 3.989477,-6.847312 -0.03649,-4.259722 -0.01605,-5.642688 -0.01605,-9.902641 h 6.545849 c -0.01564,4.227821 0.02932,5.57873 -0.01605,9.806302 z"
       id="rect5189"
       inkscape:connector-curvature="0"
       sodipodi:nodetypes="czszzccccc" />
    <path
       style="opacity:1;vector-effect:none;fill:none;fill-opacity:1;stroke:#ffffff;stroke-width:1.10596;stroke-linecap:round;stroke-linejoin:round;stroke-miterlimit:4;stroke-dasharray:none;stroke-dashoffset:0;stroke-opacity:1"
       d="m 31.23113,43.821932 c 1.508691,0.89837 3.231206,1.37451 4.987109,1.37852 5.407803,-5e-5 9.791597,-4.38411 9.791331,-9.791904 -3.9e-5,-3.761919 -2.122673,-7.02687 -5.234578,-8.666574 V 5.7755188 H 31.390014 V 26.895714 c -2.454509,1.396185 -4.266689,3.829886 -4.798507,6.77026"
       id="path5198"
       inkscape:connector-curvature="0"
       sodipodi:nodetypes="cccccccc" />
    <path
       style="opacity:1;vector-effect:none;fill:#ffffff;fill-opacity:1;stroke:#ffffff;stroke-width:0.870502;stroke-linecap:round;stroke-linejoin:round;stroke-miterlimit:4;stroke-dasharray:none;stroke-dashoffset:0;stroke-opacity:1"
       d="m 25.116979,36.75734 c -0.497958,0.487634 -1.01504,0.949537 -1.624268,1.281356 -2.181644,0.672666 -4.284893,-0.113998 -6.354191,-0.903577 -0.428237,0.728576 -0.993737,1.694382 -1.916891,3.278833 -0.923832,1.58562 -1.193931,2.66001 -1.190479,3.20509 0.0034,0.54509 0.0965,0.61002 0.390919,0.81042 0.588842,0.40079 2.396105,0.54867 3.626884,0.54867 h 5.758665 c 1.249944,0 3.221495,-0.10197 3.976659,-0.55553 0.377582,-0.2268 0.490097,-0.32589 0.522944,-0.84413 0.03285,-0.51825 -0.188828,-1.57703 -1.103613,-3.17538 -2.087534,-3.647446 -1.814584,-3.170156 -2.086629,-3.645752 z"
       id="path5281"
       inkscape:connector-curvature="0" />
    <path
       style="opacity:1;vector-effect:none;fill:none;fill-opacity:1;stroke:#ffffff;stroke-width:0.870502;stroke-linecap:round;stroke-linejoin:round;stroke-miterlimit:4;stroke-dasharray:none;stroke-dashoffset:0;stroke-opacity:1"
       d="m 24.480669,32.74483 c 1.691414,2.952179 0,0 3.974052,6.943652 3.974052,6.94364 -2.232299,6.73116 -4.647539,6.73116 h -5.757995 c -2.415239,0 -8.061214,0.11613 -4.071739,-6.73116 3.989477,-6.847313 2.303203,-3.863019 3.989477,-6.847313 -0.03649,-4.259722 -0.01605,-5.642688 -0.01605,-9.902641 h 6.54585 c -0.01564,4.227821 0.02932,5.57873 -0.01605,9.806302 z"
       id="rect5189-4"
       inkscape:connector-curvature="0"
       sodipodi:nodetypes="czszzccccc" />
    <path
       sodipodi:type="inkscape:offset"
       inkscape:radius="0.33072954"
       inkscape:original="M 87.396484 86.939453 L 87.396484 88.984375 C 87.396613 89.465088 87.138568 89.908838 86.720703 90.146484 C 84.92831 91.16604 83.510831 93.398301 83.03125 95.511719 L 86.457031 102.91211 C 87.539021 103.48937 89.199495 104.19641 90.429688 104.19922 C 94.595303 104.19722 97.943565 100.84767 97.943359 96.681641 C 97.94333 93.78267 96.312045 91.285723 93.923828 90.027344 C 93.48549 89.796103 93.2111 89.341294 93.210938 88.845703 L 93.210938 87.175781 C 93.056619 87.238161 92.902531 87.302738 92.746094 87.359375 C 91.162377 88.039367 89.343452 88.035709 87.849609 87.126953 C 87.705895 87.057843 87.553146 86.996651 87.396484 86.939453 z "
       xlink:href="#path5317"
       style="opacity:1;vector-effect:none;fill:#ffffff;fill-opacity:1;stroke:none;stroke-width:3.77953;stroke-linecap:round;stroke-linejoin:round;stroke-miterlimit:4;stroke-dasharray:none;stroke-dashoffset:0;stroke-opacity:1"
       id="path5364"
       d="m 87.509766,86.628906 a 0.33076262,0.33076262 0 0 0 -0.44336,0.310547 v 2.044922 c 9.7e-5,0.362302 -0.19483,0.695892 -0.509765,0.875 -1.90759,1.085083 -3.348075,3.37852 -3.847657,5.580078 a 0.33076262,0.33076262 0 0 0 0.02148,0.210938 l 3.425781,7.400389 a 0.33076262,0.33076262 0 0 0 0.144531,0.15234 c 1.107021,0.59062 2.772672,1.32308 4.128907,1.32618 4.342821,-0.002 7.843964,-3.50442 7.84375,-7.847659 -3.1e-5,-3.02304 -1.702419,-5.633731 -4.195313,-6.947266 -0.330427,-0.174314 -0.536987,-0.51509 -0.537109,-0.888672 v -1.669922 a 0.33076262,0.33076262 0 0 0 -0.453125,-0.30664 c -0.156927,0.06343 -0.308941,0.126779 -0.455079,0.179687 a 0.33076262,0.33076262 0 0 0 -0.01758,0.0059 c -1.498964,0.643602 -3.20141,0.63607 -4.59375,-0.210938 a 0.33076262,0.33076262 0 0 0 -0.0293,-0.01563 c -0.157485,-0.07573 -0.319435,-0.139711 -0.482422,-0.199219 z"
       transform="matrix(1.1059643,0,0,1.1059643,-63.790262,-71.517672)"
       inkscape:href="#path5317" />
    <path
       style="opacity:1;vector-effect:none;fill:none;fill-opacity:1;stroke:#ffffff;stroke-width:1.10596;stroke-linecap:round;stroke-linejoin:round;stroke-miterlimit:4;stroke-dasharray:none;stroke-dashoffset:0;stroke-opacity:1"
       d="m 31.23113,43.821932 c 1.508692,0.89837 3.231207,1.37451 4.987109,1.37852 5.407803,-5e-5 9.791598,-4.38411 9.791331,-9.791904 -3.7e-5,-3.761918 -2.122672,-7.026869 -5.234578,-8.666573 V 5.7755198 H 31.390014 V 26.895715 c -2.454509,1.396185 -4.266688,3.829886 -4.798507,6.77026"
       id="path5198-7"
       inkscape:connector-curvature="0"
       sodipodi:nodetypes="cccccccc" />
    <circle
       style="opacity:1;vector-effect:none;fill:#ffffff;fill-opacity:1;stroke:none;stroke-width:0.805431;stroke-linecap:round;stroke-linejoin:round;stroke-miterlimit:4;stroke-dasharray:none;stroke-dashoffset:0;stroke-opacity:1"
       id="path5366"
       cx="22.087257"
       cy="15.198255"
       r="0.91330093" />
    <circle
       style="opacity:1;vector-effect:none;fill:#ffffff;fill-opacity:1;stroke:none;stroke-width:0.805431;stroke-linecap:round;stroke-linejoin:round;stroke-miterlimit:4;stroke-dasharray:none;stroke-dashoffset:0;stroke-opacity:1"
       id="path5366-2"
       cx="23.761642"
       cy="17.405407"
       r="0.91330093" />
    <circle
       style="opacity:1;vector-effect:none;fill:#ffffff;fill-opacity:1;stroke:none;stroke-width:0.805431;stroke-linecap:round;stroke-linejoin:round;stroke-miterlimit:4;stroke-dasharray:none;stroke-dashoffset:0;stroke-opacity:1"
       id="path5366-2-4"
       cx="22.201416"
       cy="19.384228"
       r="0.91330093" />
    <circle
       style="opacity:1;vector-effect:none;fill:#ffffff;fill-opacity:1;stroke:none;stroke-width:0.805431;stroke-linecap:round;stroke-linejoin:round;stroke-miterlimit:4;stroke-dasharray:none;stroke-dashoffset:0;stroke-opacity:1"
       id="path5366-0"
       cx="19.50071"
       cy="26.460598"
       r="0.91330093" />
    <circle
       style="opacity:1;vector-effect:none;fill:#ffffff;fill-opacity:1;stroke:none;stroke-width:0.805431;stroke-linecap:round;stroke-linejoin:round;stroke-miterlimit:4;stroke-dasharray:none;stroke-dashoffset:0;stroke-opacity:1"
       id="path5366-2-6"
       cx="22.063408"
       cy="29.556057"
       r="0.91330093" />
    <circle
       style="opacity:1;vector-effect:none;fill:#ffffff;fill-opacity:1;stroke:none;stroke-width:0.805431;stroke-linecap:round;stroke-linejoin:round;stroke-miterlimit:4;stroke-dasharray:none;stroke-dashoffset:0;stroke-opacity:1"
       id="path5366-2-4-2"
       cx="21.548256"
       cy="34.879105"
       r="0.91330093" />
    <circle
       style="opacity:1;vector-effect:none;fill:#ffffff;fill-opacity:1;stroke:none;stroke-width:0.805431;stroke-linecap:round;stroke-linejoin:round;stroke-miterlimit:4;stroke-dasharray:none;stroke-dashoffset:0;stroke-opacity:1"
       id="path5366-0-9"
       cx="35.543671"
       cy="23.119213"
       r="0.91330093" />
    <circle
       style="opacity:1;vector-effect:none;fill:#ffffff;fill-opacity:1;stroke:none;stroke-width:0.805431;stroke-linecap:round;stroke-linejoin:round;stroke-miterlimit:4;stroke-dasharray:none;stroke-dashoffset:0;stroke-opacity:1"
       id="path5366-0-9-9"
       cx="37.424805"
       cy="20.767803"
       r="0.91330093" />
    <circle
       style="opacity:1;vector-effect:none;fill:#ffffff;fill-opacity:1;stroke:none;stroke-width:0.805431;stroke-linecap:round;stroke-linejoin:round;stroke-miterlimit:4;stroke-dasharray:none;stroke-dashoffset:0;stroke-opacity:1"
       id="path5366-0-9-9-0"
       cx="34.550858"
       cy="15.33344"
       r="0.91330093" />
    <circle
       style="opacity:1;vector-effect:none;fill:#ffffff;fill-opacity:1;stroke:none;stroke-width:0.805431;stroke-linecap:round;stroke-linejoin:round;stroke-miterlimit:4;stroke-dasharray:none;stroke-dashoffset:0;stroke-opacity:1"
       id="path5366-0-9-9-0-8"
       cx="38.104103"
       cy="2.8971071"
       r="0.91330093" />
    <circle
       style="opacity:1;vector-effect:none;fill:#ffffff;fill-opacity:1;stroke:none;stroke-width:0.805431;stroke-linecap:round;stroke-linejoin:round;stroke-miterlimit:4;stroke-dasharray:none;stroke-dashoffset:0;stroke-opacity:1"
       id="path5366-0-9-9-0-8-1"
       cx="37.52932"
       cy="11.832456"
       r="0.91330093" />
  </g>
</svg>
