<?xml version="1.0" encoding="UTF-8" standalone="no"?>
<!DOCTYPE svg PUBLIC "-//W3C//DTD SVG 1.1//EN" "http://www.w3.org/Graphics/SVG/1.1/DTD/svg11.dtd">
<svg xmlns="http://www.w3.org/2000/svg">
<metadata>Generated by IcoMoon</metadata>
<defs>
<font id="icomoon" horiz-adv-x="1024">
<font-face units-per-em="1024" ascent="960" descent="-64"/>
<missing-glyph horiz-adv-x="1024"/>
<glyph unicode=" " horiz-adv-x="512" d=""/>
<glyph unicode="" glyph-name="dot" horiz-adv-x="511" d="M-0.088 448c0 141.5 114.5 256 256 256 141.438 0 256-114.5 256-256s-114.562-256-256-256c-141.499 0-256 114.5-256 256z"/>
<glyph unicode="" glyph-name="embed" horiz-adv-x="1280" d="M832 224l96-96 320 320-320 320-96-96 224-224zM448 672l-96 96-320-320 320-320 96 96-224 224zM701.298 809.481l69.468-18.944-191.987-704.026-69.468 18.944 191.987 704.026z"/>
<glyph unicode="" glyph-name="yt-play" d="M981.188 799.892c-143.632 20.65-302.332 32.108-469.186 32.108-166.86 0-325.556-11.458-469.194-32.108-27.53-107.726-42.808-226.75-42.808-351.892 0-125.14 15.278-244.166 42.808-351.89 143.638-20.652 302.336-32.11 469.194-32.11 166.854 0 325.552 11.458 469.186 32.11 27.532 107.724 42.812 226.75 42.812 351.89 0 125.142-15.28 244.166-42.812 351.892zM384.002 256v384l320-192-320-192z"/>
<glyph unicode="" glyph-name="label" d="M976 960h-384c-26.4 0-63.274-15.274-81.942-33.942l-476.116-476.116c-18.668-18.668-18.668-49.214 0-67.882l412.118-412.118c18.668-18.668 49.214-18.668 67.882 0l476.118 476.118c18.666 18.666 33.94 55.54 33.94 81.94v384c0 26.4-21.6 48-48 48zM736 576c-53.020 0-96 42.98-96 96s42.98 96 96 96 96-42.98 96-96-42.98-96-96-96z"/>
<glyph unicode="" glyph-name="labels" horiz-adv-x="1280" d="M1232 960h-384c-26.4 0-63.274-15.274-81.942-33.942l-476.116-476.116c-18.668-18.668-18.668-49.214 0-67.882l412.118-412.118c18.668-18.668 49.214-18.668 67.882 0l476.118 476.118c18.666 18.666 33.94 55.54 33.94 81.94v384c0 26.4-21.6 48-48 48zM992 576c-53.020 0-96 42.98-96 96s42.98 96 96 96 96-42.98 96-96-42.98-96-96-96zM128 416l544 544h-80c-26.4 0-63.274-15.274-81.942-33.942l-476.116-476.116c-18.668-18.668-18.668-49.214 0-67.882l412.118-412.118c18.668-18.668 49.214-18.668 67.882 0l30.058 30.058-416 416z"/>
<glyph unicode="" glyph-name="pdf" d="M842.012 370.52c-13.648 13.446-43.914 20.566-89.972 21.172-31.178 0.344-68.702-2.402-108.17-7.928-17.674 10.198-35.892 21.294-50.188 34.658-38.462 35.916-70.568 85.772-90.576 140.594 1.304 5.12 2.414 9.62 3.448 14.212 0 0 21.666 123.060 15.932 164.666-0.792 5.706-1.276 7.362-2.808 11.796l-1.882 4.834c-5.894 13.592-17.448 27.994-35.564 27.208l-10.916 0.344c-20.202 0-36.664-10.332-40.986-25.774-13.138-48.434 0.418-120.892 24.98-214.738l-6.288-15.286c-17.588-42.876-39.63-86.060-59.078-124.158l-2.528-4.954c-20.46-40.040-39.026-74.028-55.856-102.822l-17.376-9.188c-1.264-0.668-31.044-16.418-38.028-20.644-59.256-35.38-98.524-75.542-105.038-107.416-2.072-10.17-0.53-23.186 10.014-29.212l16.806-8.458c7.292-3.652 14.978-5.502 22.854-5.502 42.206 0 91.202 52.572 158.698 170.366 77.93 25.37 166.652 46.458 244.412 58.090 59.258-33.368 132.142-56.544 178.142-56.544 8.168 0 15.212 0.78 20.932 2.294 8.822 2.336 16.258 7.368 20.792 14.194 8.926 13.432 10.734 31.932 8.312 50.876-0.72 5.622-5.21 12.574-10.068 17.32zM211.646 145.952c7.698 21.042 38.16 62.644 83.206 99.556 2.832 2.296 9.808 8.832 16.194 14.902-47.104-75.124-78.648-105.066-99.4-114.458zM478.434 760.314c13.566 0 21.284-34.194 21.924-66.254s-6.858-54.56-16.158-71.208c-7.702 24.648-11.426 63.5-11.426 88.904 0 0-0.566 48.558 5.66 48.558v0zM398.852 322.506c9.45 16.916 19.282 34.756 29.33 53.678 24.492 46.316 39.958 82.556 51.478 112.346 22.91-41.684 51.444-77.12 84.984-105.512 4.186-3.542 8.62-7.102 13.276-10.65-68.21-13.496-127.164-29.91-179.068-49.862v0zM828.902 326.348c-4.152-2.598-16.052-4.1-23.708-4.1-24.708 0-55.272 11.294-98.126 29.666 16.468 1.218 31.562 1.838 45.102 1.838 24.782 0 32.12 0.108 56.35-6.072 24.228-6.18 24.538-18.734 20.382-21.332v0zM917.806 730.924c-22.21 30.292-53.174 65.7-87.178 99.704s-69.412 64.964-99.704 87.178c-51.574 37.82-76.592 42.194-90.924 42.194h-496c-44.112 0-80-35.888-80-80v-864c0-44.112 35.886-80 80-80h736c44.112 0 80 35.888 80 80v624c0 14.332-4.372 39.35-42.194 90.924v0zM785.374 785.374c30.7-30.7 54.8-58.398 72.58-81.374h-153.954v153.946c22.982-17.78 50.678-41.878 81.374-72.572v0zM896 16c0-8.672-7.328-16-16-16h-736c-8.672 0-16 7.328-16 16v864c0 8.672 7.328 16 16 16 0 0 495.956 0.002 496 0v-224c0-17.672 14.324-32 32-32h224v-624z"/>
<glyph unicode="" glyph-name="upload" d="M0 64h1024v-64h-1024zM1024 192v-64h-1024v64l128 256h256v-128h256v128h256zM224 640l288 288 288-288h-224v-256h-128v256z"/>
<glyph unicode="" glyph-name="video-camera" d="M384 672c0 88.366 71.634 160 160 160s160-71.634 160-160c0-88.366-71.634-160-160-160s-160 71.634-160 160zM0 672c0 88.366 71.634 160 160 160s160-71.634 160-160c0-88.366-71.634-160-160-160s-160 71.634-160 160zM768 352v96c0 35.2-28.8 64-64 64h-640c-35.2 0-64-28.8-64-64v-320c0-35.2 28.8-64 64-64h640c35.2 0 64 28.8 64 64v96l256-160v448l-256-160zM640 192h-512v192h512v-192z"/>
<glyph unicode="" glyph-name="film" d="M0 832v-768h1024v768h-1024zM192 128h-128v128h128v-128zM192 384h-128v128h128v-128zM192 640h-128v128h128v-128zM768 128h-512v640h512v-640zM960 128h-128v128h128v-128zM960 384h-128v128h128v-128zM960 640h-128v128h128v-128zM384 640v-384l256 192z"/>
<glyph unicode="" glyph-name="movie" d="M895.264 704h-126.368l127.104 127.488-125.632 128.512h-178.112l127.616-127.488-130.752-128.512h-151.136l129.888 127.488-128.384 128.512h-180.992l127.488-127.488-130.72-128.512h-128.256l129.984 127.488-128.48 128.512h-128.512v-1024h1024v1024h-125.504l125.504-128-128.736-128zM896 64h-768v128h768v-128zM896 320h-768v128h768v-128z"/>
<glyph unicode="" glyph-name="document-diagrams" d="M608 384v96h-160v-160h-128v-192h416v256h-128zM624 864h16l192-224v-576.295c0-34.963-28.617-63.705-63.918-63.705h-480.165c-35.408 0-63.918 28.759-63.918 64.235v735.531c0 35.488 28.693 64.235 64.088 64.235h335.912zM608 832h-320.142c-17.595 0-31.858-14.568-31.858-31.855v-736.291c0-17.593 14.551-31.855 31.999-31.855h480.003c17.672 0 31.999 14.238 31.999 31.789v544.211h-128.067c-35.309 0-63.933 28.37-63.933 64.189v159.811zM640 816v-143.719c0-17.828 14.421-32.281 31.896-32.281h118.503l-150.398 176zM352 288h96v-128h-96v128zM480 448h96v-288h-96v288zM608 352h96v-192h-96v192z"/>
<glyph unicode="" glyph-name="rug-champion" horiz-adv-x="896" d="M670.016 570.645c40.428-0.026 76.889 25.488 92.377 64.643s6.953 84.235-21.625 114.218c-28.578 29.982-71.569 38.96-108.922 22.745s-61.71-54.428-61.711-96.816c0.053-57.825 44.73-104.698 99.881-104.789zM887.811 381.001l-34.31 49.072c-7.832 11.199-20.861 29.030-29.044 39.745l-50.635 66.346c-7.341 9.623-14.959 16.473-29.574 16.473l-119.687 0.167-77.717 55.396c-10.687 7.88-20.888 16.461-30.541 25.692l-8.909 8.796h16.062c2.689-0.135 5.268 1.128 6.897 3.375s2.097 5.191 1.253 7.871l-10.564 39.859c-1.649 5.547-6.47 9.388-12.009 9.569h-27.212l-6.79 43.18 35.805 25.036c8.595 6.008 15.945 16.722 20.016 28.044 29.552 2.811 52.192 28.771 52.225 59.884 0 42.396-11.184 60.086-38.486 60.65l6.632 27.181c0.807 3.049 0.218 6.317-1.596 8.846-1.886 2.469-4.76 3.879-7.776 3.815h-186.17c-3.016 0.064-5.89-1.345-7.775-3.815-1.815-2.529-2.405-5.799-1.596-8.848l6.635-27.179c-27.411-0.502-38.633-18.179-38.633-60.653 0.035-31.112 22.676-57.069 52.228-59.877 4.069-11.323 11.423-22.036 20.016-28.043l35.94-25.13-6.774-43.085h-23.344c-5.539-0.18-10.359-4.022-12.007-9.569l-10.566-39.872c-0.845-2.68-0.377-5.624 1.252-7.871s4.209-3.508 6.898-3.371h12.040l-8.909-8.796c-9.651-9.23-19.85-17.812-30.534-25.692l-77.717-55.396-117.612-0.085c-15.063 0-24.963-6.060-33.034-16.632l-50.642-66.342c-8.19-10.73-21.224-28.56-29.044-39.752l-34.31-49.070c-9.425-13.468-10.83-31.347-3.635-46.252s21.768-24.304 37.7-24.317c13.472 0.022 26.135 6.746 34.123 18.121l30.753 43.985-6.742-79.018-59.347-295.606c-2.755-13.791 0.563-28.149 9.033-39.087s21.19-17.293 34.629-17.299c21.045 0.096 39.184 15.551 43.579 37.13l55.535 276.64h14.463l7.933-93.378c1.022-14.034 1.365-28.113 1.028-42.183l-4.676-129.673c-0.932-25.801 18.261-47.508 42.869-48.486 0.57-0.022 1.139-0.037 1.704-0.037 23.993-0.069 43.703 19.848 44.523 44.989l4.676 129.673c0.479 18.019 0.039 36.052-1.317 54.023l-11.862 139.622c-0.032 0.383-0.105 0.746-0.145 1.128l12.899 151.145 102.173 72.826c14.367 10.514 28.049 22.020 40.955 34.443l9.656 9.537 9.652-9.529c12.907-12.432 26.591-23.947 40.96-34.468l94.792-67.565 13.347-156.402c-0.041-0.376-0.116-0.745-0.147-1.128l-11.862-139.617c-1.356-17.951-1.805-35.964-1.347-53.964l4.704-135.124c0.784-25.165 20.504-45.118 44.517-45.046 0.551 0 1.106 0.010 1.652 0.032 11.818 0.451 22.98 5.807 31.031 14.888s12.33 21.145 11.897 33.536l-4.706 135.124c-0.321 14.093 0.032 28.194 1.058 42.25l7.931 93.378h14.466l21.138-105.269c2.692-13.412 7.365-35.11 10.418-48.367l28.621-124.342c3.669-16.31 15.385-29.312 30.708-34.079s31.906-0.567 43.465 11.006c11.559 11.573 16.324 28.749 12.49 45.017l-28.619 124.34c-2.893 12.572-7.309 33.069-9.843 45.693l-24.951 124.252-7.515 88.091c0.986-1.387 1.915-2.707 2.766-3.922l34.31-49.072c7.989-11.374 20.652-18.097 34.123-18.119 15.929 0.018 30.497 9.419 37.688 24.32s5.787 32.777-3.633 46.243zM536.998 895.325c0.3 0.351 0.582 0.716 0.847 1.096 1.886 0.080 3.702 0.147 5.387 0.147 9.683 0 17.332 0 17.332-37.065-0.018-15.612-9.483-29.492-23.567-34.558v70.38zM360.391 824.942c-14.084 5.067-23.548 18.947-23.566 34.558 0 37.065 7.646 37.065 17.326 37.065 1.733 0 3.6-0.069 5.547-0.154 0.214-0.31 0.452-0.604 0.689-0.895v-70.574h0.003zM421.352 821.236c-1.227 1.886-1.471 4.29-0.651 6.405l7.103 22.923c-0.038-0.107-0.091 0.069-0.136 0.134l-18.46 14.040c-2.507 1.424-3.688 4.521-2.809 7.365s3.569 4.625 6.396 4.235h22.98c-0.107 0 0.034 0.114 0.080 0.181l7.022 22.756c0.506 2.949 2.954 5.094 5.811 5.094s5.305-2.146 5.811-5.094l7.117-22.936c-0.029 0.109 0.11 0 0.187-0.023l22.8 0.023c2.824 0.386 5.509-1.392 6.39-4.231s-0.294-5.934-2.794-7.362l-18.595-14.174c0.078 0.070 0.034-0.112 0.035-0.192l7.062-22.74c0.82-2.113 0.576-4.517-0.651-6.402-1.041-1.508-2.714-2.394-4.489-2.378-1.549 0.047-3.043 0.614-4.262 1.616l-18.595 14.17-18.601-14.17c-3.2-2.435-6.889-1.936-8.75 0.763v-0.002zM220.437 570.645c40.427-0.018 76.882 25.501 92.365 64.656s6.942 84.234-21.638 114.212c-28.58 29.978-71.57 38.951-108.921 22.734s-61.705-54.43-61.704-96.816c0.047-57.834 44.739-104.713 99.899-104.786v0z"/>
<glyph unicode="" glyph-name="facebook" horiz-adv-x="992" d="M992 789.464c-3.147 92.807-75.387 167.291-165.397 170.536h-661.587c-89.942-3.257-162.065-77.792-165.016-170.536v-682.536c2.792-92.88 74.948-167.622 165.016-170.929h330.794v387.045h-121.189v170.536h121.189v66.407c0 114.738 83.461 218.081 185.976 218.081h133.766v-170.929h-133.766c-20.396-4.463-34.117-24.236-31.631-45.581v-67.979h165.397v-170.536h-165.397v-387.045h176.449c90.152 3.257 162.445 77.968 165.397 170.929v682.536z"/>
<glyph unicode="" glyph-name="home" d="M1011.439 477.527l-463.155 420.729c-20.951 18.325-51.617 18.325-72.568 0l-463.155-420.729c-10.534-6.613-15.162-19.954-11.099-31.993 6.178-11.483 18.617-17.763 31.162-15.732h52.078v-373.977c2.79-41.075 36.215-72.663 75.983-71.808h234.779v253.516h227.095v-253.516h240.755c39.398-0.673 72.235 31.073 74.275 71.808v373.977h53.786c12.545-2.031 24.983 4.248 31.162 15.732 4.064 12.040-0.564 25.381-11.099 31.993z"/>
<glyph unicode="" glyph-name="instagram" horiz-adv-x="992" d="M127.273 959.962h737.455c34.056 0.853 66.958-12.753 91.010-37.637s37.145-58.862 36.216-93.988v-761.065c0.856-35.068-12.273-68.963-36.321-93.768s-56.908-38.347-90.906-37.464h-737.455c-33.998-0.883-66.858 12.659-90.906 37.464s-37.177 58.699-36.321 93.768v761.065c-0.929 35.125 12.164 69.104 36.216 93.988s56.954 38.49 91.010 37.637v0 0zM722.646 846.018c-24.605-0.022-44.546-20.591-44.567-45.97v-110.408c0.021-25.38 19.962-45.949 44.567-45.97h111.99c24.605 0.022 44.546 20.591 44.567 45.97v110.408c-0.021 25.38-19.962 45.949-44.567 45.97h-111.99zM879.964 526.976h-87.611c8.587-28.498 12.953-58.169 12.951-88.012-5.838-171.311-142.167-307.076-308.352-307.076s-302.514 135.765-308.352 307.076c-0.002 29.842 4.365 59.514 12.951 88.012h-91.42v-432.593c0.125-22.514 17.788-40.734 39.615-40.863h690.602c21.827 0.129 39.491 18.348 39.615 40.863v432.593zM496.762 649.564c-105.975-3.296-189.619-93.989-187.526-203.328s89.144-196.555 195.162-195.533c106.018 1.023 191.472 89.902 191.583 199.263-0.702 53.737-22.099 104.978-59.472 142.423s-87.652 58.015-139.747 57.175v0z"/>
<glyph unicode="" glyph-name="rug-lab" horiz-adv-x="896" d="M858.958 146.137h-3.227c25.843 218.344-42.966 350.937-92.993 416.001-3.602 19.644-11.29 38.252-22.534 54.542l31.416 32.408c23.578 24.371 31.47 60.54 20.285 92.969l60.751 62.669c14.472 14.922 14.472 39.11 0 54.032l-87.304 90.052c-6.944 7.164-16.366 11.189-26.19 11.189s-19.246-4.025-26.19-11.189l-60.722-62.624c-9.328 3.419-19.156 5.159-29.056 5.145v0c-22.938 0.063-44.947-9.339-61.117-26.11l-282.859-291.785c-23.577-24.371-31.467-60.54-20.28-92.969l-25.831-26.639c-33.753-34.826-33.753-91.254 0-126.079l17.457-18.010c16.204-16.717 38.19-26.109 61.116-26.109s44.911 9.393 61.116 26.109l25.785 26.597c31.467-11.511 66.551-3.349 90.171 20.98l63.305 65.304c4.507-3.334 9.21-6.377 14.082-9.111 15.507-63.311 4.989-127.056-31.387-189.732-16.759-28.59-37.202-54.705-60.77-77.632h-311.356l-34.99 35.435h300.598c20.474 0 37.071 17.108 37.071 38.213s-16.597 38.213-37.071 38.213h-391.173c-15.053-0.006-28.608-9.394-34.303-23.757s-2.398-30.85 8.343-41.722l103.383-104.723v-113.592c-0.004-10.13 3.895-19.848 10.842-27.014s16.37-11.195 26.198-11.199h707.435c20.463 0.017 37.042 17.12 37.042 38.213v133.719c-0.004 21.090-16.583 38.189-37.042 38.205v0zM294.62 12.425l-56.562 57.299h295.708c5.643-21.109 15.736-40.674 29.56-57.299h-268.707zM320.398 363.78c-2.313-2.391-5.453-3.735-8.729-3.735s-6.416 1.344-8.729 3.735l-17.46 18.007c-4.822 4.974-4.822 13.034 0 18.007l19.924 20.552 34.927-36.035-19.934-20.532zM495.484 535.827c0.007-18.171 3.485-36.162 10.235-52.948l-69.355-71.54c-4.824-4.965-12.638-4.965-17.462 0l-87.302 90.052c-4.81 4.98-4.81 13.032 0 18.012l282.869 291.783c2.313 2.391 5.455 3.735 8.731 3.735s6.418-1.344 8.731-3.735l22.165-22.863c2.803-3.025 5.624-5.892 8.323-8.629 1.354-1.371 2.733-2.777 4.119-4.208l17.869-18.432c1.454-1.499 2.883-2.997 4.286-4.468 2.665-2.802 5.473-5.744 8.425-8.644l22.112-22.808c4.811-4.979 4.811-13.031 0-18.010l-37.452-38.637c-41.632 17.61-89.038 12.684-126.423-13.135s-59.836-69.139-59.871-115.525v0zM672.913 36.679c-28.444-0.020-54.098 17.626-64.996 44.707s-4.895 58.264 15.21 79.004c20.105 20.739 50.352 26.95 76.633 15.736s43.418-37.646 43.419-66.965c-0.027-40-31.463-72.427-70.268-72.482h0.002zM821.925 12.42h-39.426c13.843 16.633 23.948 36.215 29.592 57.344l9.828-0.015v-57.324l0.007-0.005z"/>
<glyph unicode="" glyph-name="linkedin" horiz-adv-x="992" d="M826.667 960h-661.333c-91.275-0.090-165.246-76.386-165.333-170.53v-682.53c-0.088-94.285 73.922-170.804 165.333-170.939h661.333c91.411 0.135 165.421 76.654 165.333 170.939v682.53c-0.087 94.144-74.058 170.44-165.333 170.53zM300.571 103.006h-149.714v462.088h149.714v-462.088zM225.905 628.356h-1.143c-47.121 0.325-85.109 39.902-84.952 88.506s38.401 87.919 85.523 87.919c47.122 0 85.366-39.315 85.523-87.919s-37.831-88.181-84.952-88.506v0zM841.143 103.006h-150.095v247.154c0 62.083-21.714 104.52-75.81 104.52-34.589-0.062-65.401-22.56-76.952-56.189-3.773-12.044-5.45-24.682-4.952-37.329v-258.156h-149.714c0 0 1.905 418.866 0 462.088h149.714v-65.62c27.679 49.576 79.827 79.121 135.238 76.622 98.286 0 172.571-66.013 172.571-208.254v-264.836z"/>
<glyph unicode="" glyph-name="rug-location" horiz-adv-x="960" d="M882.586 488.447c-30.284-34.527-59.95-71.724-80.656-123.044-9.451-23.653-32.089-39.114-57.222-39.080s-47.73 15.558-57.117 39.237c-23.951 59.64-60.268 100.288-95.491 139.523-8.806 9.888-17.619 19.776-26.266 29.976-0.464-0.157-0.774-0.313-1.237-0.47-34.303-10.515-60.724-56.658-44.809-94.162 10.815-25.74 86.682-20.874 80.192-76.274-5.408-45.358 52.998-57.285 73.703-55.089 20.705 2.509 52.528-34.529 36.465-50.844-15.915-16.322-46.045-16.951-41.41-59.011 1.237-12.243 37.708-10.672 37.708-29.194 0-18.675-18.849-39.864-4.326-61.364 2.678-4.187 5.959-7.943 9.733-11.142-72.186-67.742-166.866-105.347-265.146-105.311-215.855 0-391.384 178.289-391.384 397.542-0.055 64.303 15.323 127.65 44.804 184.555-0.155-71.416 37.392-130.736 54.998-148.627 57.48-58.226 140.763-39.864 151.425-88.674 10.815-48.653-57.17-48.81-52.693-86.005 4.635-37.354 93.171-47.241 73.395-81.618-26.113-45.669 17.619-48.966 4.94-105.309-6.799-30.761 36.928-36.725 53.152-13.34 12.36 17.896 9.88 39.864 34.766 66.701 30.438 32.958 101.052 38.3 93.171 92.755-13.443 90.4-99.972 104.531-137.672 125.714-42.8 23.855-32.294 81.14-41.565 108.448-12.979 38.767-57.015-10.829-80.502 11.771-38.629 37.038 6.952 89.459 39.4 88.36 68.45-2.198 89.464-69.842 114.65-67.487 24.566 2.198 40.483 37.039 44.809 55.559 9.118 40.336-15.452 22.286-25.34 43.318-13.289 28.098 46.663 54.932 69.841 75.647 3.055 2.473 5.624 5.508 7.575 8.946 6.954 13.81-2.164 24.325-17.619 33.9-30.903 18.99-87.301 34.057-89.927 63.722-1.546 18.205 32.757 26.994 71.849 28.563 6.489-0.313 12.824-0.942 19.314-1.569 3.266 18.721 8.502 37.031 15.619 54.616-18.903 2.525-37.95 3.783-57.015 3.766-246.298 0.002-446.696-203.555-446.696-453.726s200.406-453.728 446.701-453.728c246.295 0 446.701 203.558 446.701 453.729 0.036 33.213-3.592 66.325-10.817 98.718zM723.894 958.965c-126.103-12.109-212.466-136.217-190.459-262.917 22.352-128.701 139.175-168.315 197.151-312.784 2.332-5.903 7.959-9.777 14.222-9.792s11.907 3.834 14.265 9.727c64.272 160.232 200.927 191.503 200.927 358.235-0.003 61.662-25.649 120.455-70.615 161.883s-105.068 61.639-165.491 55.649v0zM744.845 626.024c-45.955 0-87.384 28.117-104.97 71.24s-7.865 92.76 24.63 125.765c32.495 33.005 81.365 42.878 123.821 25.016s70.139-59.942 70.139-106.618c0-63.735-50.869-115.403-113.619-115.403z"/>
<glyph unicode="" glyph-name="pinterest" horiz-adv-x="992" d="M826.667 960h-661.333c-91.275-0.090-165.246-76.386-165.333-170.53v-682.53c-0.088-94.285 73.922-170.804 165.333-170.939h661.333c91.411 0.135 165.421 76.654 165.333 170.939v682.53c-0.087 94.144-74.058 170.44-165.333 170.53zM544.371 275.834c-36.984 6.386-71.475 23.394-99.517 49.073-19.428-105.508-43.217-206.109-113.394-258.863-21.807 159.080 31.719 278.492 56.697 405.265-42.424 73.61 5.154 221.649 94.759 185.252 109.826-44.984-95.552-273.994 42.424-302.62 143.923-29.853 202.603 258.045 113.394 351.284-128.857 135.361-375.469 3.272-344.94-190.16 7.137-47.438 54.715-61.751 18.635-126.773-82.468 18.812-107.050 85.879-103.878 175.438 10.247 139.064 115.988 250.372 250.577 263.77 155.421 17.994 301.327-58.888 321.548-209.789 22.6-170.53-70.177-354.965-236.304-341.879z"/>
<glyph unicode="" glyph-name="twitter" horiz-adv-x="992" d="M806.095 960h-619.809c-102.874-0.022-186.265-86.036-186.286-192.147v-639.705c0.021-106.111 83.412-192.126 186.286-192.147h619.809c49.365 0.021 96.696 20.284 131.567 56.325s54.419 84.904 54.338 135.822v639.705c0.081 50.918-19.467 99.78-54.338 135.822s-82.202 56.305-131.567 56.325v0zM742.857 563.131l0.381-16.503c0.102-130.95-69.104-251.515-180.466-314.393s-247.12-58.040-354.010 12.615c9.604-1.254 19.272-1.91 28.952-1.965 54.972-0.159 108.389 18.807 151.619 53.833-52.17 1.254-97.864 36.406-113.905 87.625 7.519-1.601 15.179-2.391 22.857-2.358 10.957-0.032 21.861 1.556 32.381 4.715-56.975 11.801-97.952 63.443-97.905 123.383v1.572c16.94-9.692 35.876-15.080 55.238-15.718-53.667 36.955-70.331 110.521-38.095 168.178 62.030-78.739 153.569-126.591 251.809-131.635-1.996 9.424-3.017 19.039-3.048 28.685-0.114 51.706 30.471 98.212 77.089 117.221s99.765 6.643 133.958-31.167c27.337 5.831 53.58 16.181 77.714 30.649-9.066-29.173-28.173-53.914-53.714-69.55 24.201 2.819 47.84 9.445 70.095 19.647-16.277-25.296-36.941-47.276-60.952-64.835v0z"/>
<glyph unicode="" glyph-name="rug-university" d="M241.431 492.444h58.281v-355.556h85.333v310.023h85.333v-310.023h83.244v310.023h85.333v-310.023h85.333v355.556h58.277c6.936 0 13.18 3.252 18.733 9.756s8.327 13.37 8.323 20.597c0 10.116-3.468 18.065-10.405 23.846v2.168h2.081l-268.483 145.257v41.194c13.872-7.227 36.075-8.311 66.609-3.253s58.282 3.253 83.244-5.419v93.223c-22.201 8.672-49.948 10.118-83.244 4.337s-55.496-4.335-66.602 4.337v4.337c-0.005 10.116-6.945 15.175-20.821 15.175s-20.814-5.058-20.813-15.175v-138.754l-268.487-145.259h12.487c-12.487-2.89-18.036-10.117-16.649-21.68v-4.336c0-20.234 7.631-30.351 22.892-30.351v0-0.002zM276.814 115.211l-62.436-67.211h595.244l-62.433 67.211h-470.375zM747.193 468.59v-331.701h18.732l8.324-13.010 56.195-54.2 20.809-21.678h172.748v420.599l-276.807-0.009zM874.148 204.1h-64.526v65.034h64.522v-65.034h0.003zM874.148 336.345h-64.526v67.211h64.522v-67.209l0.003-0.002zM959.481 204.1h-41.622v65.034h41.622v-65.034zM959.481 336.345h-41.622v67.211h41.622v-67.211zM258.090 136.889h18.733v331.71h-276.823v-420.599h172.756l20.813 19.514 56.195 56.366 8.326 13.009zM106.146 204.1h-41.622v65.034h41.622v-65.034zM106.146 336.345h-41.622v67.211h41.622v-67.211zM214.373 204.1h-64.519v65.034h64.524v-65.034h-0.005zM214.373 336.345h-64.519v67.211h64.524v-67.209l-0.005-0.002z"/>
<glyph unicode="" glyph-name="youtube" horiz-adv-x="992" d="M826.667 960h-661.333c-91.275-0.090-165.246-76.386-165.333-170.53v-682.53c-0.088-94.285 73.922-170.804 165.333-170.939h661.333c91.411 0.135 165.421 76.654 165.333 170.939v682.53c-0.087 94.144-74.058 170.44-165.333 170.53zM635.759 413.067l-244.571-136.273c-5.41-3.1-11.468-4.747-17.633-4.794-10.065 0.026-19.701 4.277-26.756 11.804s-10.943 17.703-10.795 28.256v271.861c-0.056 13.9 6.734 26.846 17.959 34.239 11.204 7.264 25.233 7.785 36.898 1.37l244.898-135.588c12.462-6.996 20.241-20.616 20.241-35.438s-7.779-28.442-20.241-35.438v0z"/>
<glyph unicode="" glyph-name="search-leftie" horiz-adv-x="976" d="M865.071 843.836c-134.468 141.135-348.013 155.395-498.461 33.286s-190.868-342.497-94.35-514.433l-243.085-214.321c-17.515-14.745-28.12-36.693-29.101-60.227s7.757-46.368 23.978-62.661l61.47-64.325c15.5-16.953 37.206-26.090 59.58-25.080s43.251 12.069 57.306 30.355l204.434 255.25c164.006-101.039 374.056-58.444 490.335 99.432s102.525 381.8-32.105 522.723v0zM747.33 412.436c-58.945-61.441-147.667-79.867-224.765-46.681s-127.379 111.444-127.379 198.257c0 86.813 50.28 165.071 127.379 198.257s165.82 14.76 224.765-46.681c80.149-83.845 80.149-219.307 0-303.153v0z"/>
<glyph unicode="" glyph-name="plus" horiz-adv-x="1016" d="M1024.008 481.771h-478.239v478.24h-67.518v-478.24h-478.24v-67.518h478.24v-478.24h67.518v478.24h478.239z"/>
<glyph unicode="" glyph-name="minus" horiz-adv-x="1016" d="M0.007 481.545h1023.997v-66.515h-1023.997v66.515z"/>
<glyph unicode="" glyph-name="rug-books" horiz-adv-x="1311" d="M1217.328 650.606c-5.454 39.863-6.181 108.617 30.903 131.657 0.727 0.366 1.091 1.097 1.818 1.463 30.176 9.874 50.9 23.406 34.539 41.691l-445.736 134.583-722.049-100.571c0 0-82.53-11.703-75.259-140.434-2.056-44.962 14.228-88.819 45.083-121.417l-59.262-17.92c-16.361-18.286 4.726-31.817 34.903-41.691l1.454-1.463c37.084-23.040 36.357-91.794 31.267-131.657-133.066-37.669-85.075-50.103-85.075-50.103l29.086-6.949c-30.615-31.931-44.373-76.568-37.084-120.32 7.271-128.731 75.259-137.509 75.259-137.509l472.277-153.966 713.324 172.983c0 0 47.628 12.434-85.439 50.103-5.090 39.863-5.817 108.617 31.267 131.657l1.454 1.463c30.176 9.874 51.263 23.406 34.903 41.691l-30.903 9.143c20.36 12.8 51.627 45.349 56.353 130.194 5.674 40.004-4.945 80.619-29.449 112.64l61.443 14.629c0 0 47.628 12.434-85.075 50.103zM620.711 652.434l119.978 24.503 465.733 95.817c-15.818-36.046-21.114-75.874-15.27-114.834 0.727-6.949 1.454-13.531 2.181-18.286l-577.712-144.091 5.090 156.891zM105.896 526.994l585.347-120.32 5.090-156.891-577.712 144.091c0.727 4.754 1.818 11.337 2.545 18.286 5.639 38.962 0.351 78.733-15.27 114.834v0zM82.264 725.211c-3.249 25.183 3.117 50.668 17.815 71.314 6.084 6.358 14.495 9.927 23.268 9.874 1.945 0.003 3.888-0.12 5.817-0.366l466.46-152.503-5.090-157.623-458.461 128.731c-0.935 0.319-1.924 0.444-2.909 0.366-1.818 0-44.719 4.023-46.9 100.206zM550.542 4.389l-458.098 128.731c-1.091 0-2.181 0.366-2.909 0.366-1.818 0-45.083 4.023-46.9 99.84-3.382 25.252 2.851 50.857 17.451 71.68 6.218 6.382 14.749 9.946 23.632 9.874 1.944-0.016 3.886-0.138 5.817-0.366v0l466.096-152.503-5.090-157.623zM1151.159 166.4c0.517-6.137 1.367-12.242 2.545-18.286l-577.712-144.091 5.090 156.526 123.614 25.6 18.178-4.389 68.351 22.309 375.204 77.166c-15.798-36.051-21.094-75.874-15.27-114.834zM1183.153 379.246c-1.103 0.059-2.209-0.064-3.272-0.366l-43.628-12.434-414.469-116.297-5.090 157.623 135.975 44.617 329.394 107.52c10.939 2.078 22.198-1.333 30.176-9.143 14.553-20.705 20.787-46.18 17.451-71.314-1.818-96.183-45.083-100.206-46.537-100.206v0z"/>
<glyph unicode="" glyph-name="rug-brain" horiz-adv-x="864" d="M808.603 509.281c-26.808 48.058 11.242 76.779 13.836 101.519 13.126 89.155-18.986 178.981-85.9 240.289-78.228 73.272-183.046 112.42-290.85 108.628-200.338-1.422-281.338-60.854-342.736-124.837-127.409-133.083-100.601-249.957-100.601-249.957 3.171-69.385 105.502-195.644 105.502-195.644 81.576-109.481 41.509-193.937 41.509-193.937 164.594-34.693 299.786-259.342 299.786-259.342 5.765 33.271 85.035 173.747 85.035 173.747 33.149 38.674 88.783 25.024 118.473 21.612 86.188-9.668 107.519 13.934 107.519 13.934 18.737 10.806 9.801 55.451 9.801 55.451-4.969 15.431-0.608 32.306 11.242 43.508 19.025 24.455 8.071 36.114 8.071 36.114-5.765 6.825-2.018 10.522-2.018 10.522 10.070 1.26 18.667 7.783 22.484 17.062l-0.577 35.546c-3.459 24.455 8.359 25.877 8.359 25.877 47.562 0.853 46.409 29.574 46.409 29.574 2.018 15.924-55.345 110.334-55.345 110.334zM434.159 302.832c-35.018 1.369-62.418 30.247-61.491 64.807s29.837 61.969 64.879 61.51c35.042-0.459 63.204-28.616 63.2-63.188 0.397-17.312-6.58-33.995-19.236-45.994s-29.832-18.214-47.351-17.135v0zM523.806 561.036c-24.469-22.331-38.193-53.85-37.761-86.732v-12.512h-98.872l-0.577 17.915c-1.197 40.703 14.651 80.096 43.815 108.912 23.925 26.446 42.95 48.627 42.95 72.229 0 24.455-17.007 40.38-54.192 41.802-25.964-0.433-51.34-7.698-73.505-21.043l-25.078 75.641c38.324 19.372 80.894 29.138 123.95 28.437 98.007 0 142.398-50.617 142.398-108.059 0-52.892-34.879-87.585-63.128-116.59v0z"/>
<glyph unicode="" glyph-name="rug-graduate" horiz-adv-x="1524" d="M295.049 492.832v-345.161c0-69.268 209.074-175.139 466.998-175.139s466.998 105.87 466.998 175.139v345.161l-466.998-178.681-466.998 178.681zM257.923 45.342v534.075h-54.32v-534.075c-16.962-10.709-27.289-29.428-27.356-49.59-1.744-20.725 8.249-40.672 25.836-51.575s39.772-10.903 57.359 0c17.587 10.903 27.58 30.851 25.836 51.575-0.067 20.162-10.393 38.881-27.356 49.59v0zM708.899 688.043c7.101 23.756 28.523 40.254 53.148 40.931 31.992-2.006 56.92-28.721 56.92-61.003s-24.927-58.998-56.92-61.003c-17.5 0.367-33.77 9.145-43.769 23.614l-433.78-71.63 477.549-183.010 762.047 292.029-762.047 292.029-762.047-292.029 177.029-67.694 531.869 87.766z"/>
<glyph unicode="" glyph-name="rug-open" horiz-adv-x="1057" d="M467.076 354.837v-56.724c0-27.043-10.57-35.617-29.729-35.617h-28.738v128.288h28.738c19.159 0 29.729-8.575 29.729-35.947zM216.692 395.071c-9.581 0.542-18.858-3.457-25.033-10.791s-8.528-17.145-6.347-26.475v-204.799c-2.153-12.477 3.313-25.039 13.917-31.983s24.323-6.943 34.927 0c10.604 6.943 16.070 19.506 13.917 31.983v204.799c2.18 9.331-0.172 19.141-6.347 26.475s-15.452 11.333-25.033 10.791v0zM1057.032 462.678v-418.173c-0.174-29.009-11.907-56.755-32.607-77.113s-48.665-31.651-77.72-31.388h-836.377c-29.055-0.263-57.020 11.030-77.72 31.388s-32.433 48.104-32.607 77.113v418.173c0.174 29.009 11.907 56.755 32.607 77.113s48.665 31.651 77.72 31.388h150.297l164.17 228.544c-6.767 14.57-10.262 30.44-10.24 46.5 0 62.837 51.022 113.777 113.961 113.777s113.961-50.94 113.961-113.777c0.022-16.060-3.473-31.93-10.24-46.5l164.17-228.544h150.297c29.055 0.263 57.020-11.030 77.72-31.388s32.433-48.104 32.607-77.113v0zM372.274 571.179h312.485l-121.228 168.522c-22.743-7.475-47.286-7.475-70.028 0l-121.228-168.522zM308.852 353.847c1.278 33.703-16.002 65.407-45.043 82.638s-65.194 17.231-94.234 0c-29.041-17.231-46.321-48.935-45.043-82.638v-196.884c-1.278-33.703 16.002-65.407 45.043-82.638s65.194-17.231 94.234 0c29.041 17.231 46.321 48.935 45.043 82.638v196.884zM527.525 351.209c0 60.681-29.729 93.66-90.178 93.66h-89.187v-378.928h60.449v142.469h28.738c60.449 0 90.178 32.979 90.178 93.66v49.139zM724.067 444.869h-165.492v-378.928h165.492v54.085h-104.712v111.139h83.241v54.085h-83.241v105.533h104.712v54.085zM953.311 444.869h-53.843v-226.895l-62.431 226.895h-75.974v-378.928h54.503v274.385l75.314-274.385h62.431v378.928z"/>
<glyph unicode="" glyph-name="phone" d="M704 320c-64-64-64-128-128-128s-128 64-192 128-128 128-128 192 64 64 128 128-128 256-192 256-192-192-192-192c0-128 131.5-387.5 256-512s384-256 512-256c0 0 192 128 192 192s-192 256-256 192z"/>
<glyph unicode="" glyph-name="mobile" d="M736 960h-448c-52.8 0-96-43.2-96-96v-832c0-52.8 43.2-96 96-96h448c52.8 0 96 43.2 96 96v832c0 52.8-43.2 96-96 96zM384 912h256v-32h-256v32zM512 0c-35.346 0-64 28.654-64 64s28.654 64 64 64 64-28.654 64-64-28.654-64-64-64zM768 192h-512v640h512v-640z"/>
<glyph unicode="" glyph-name="cog" d="M933.79 349.75c-53.726 93.054-21.416 212.304 72.152 266.488l-100.626 174.292c-28.75-16.854-62.176-26.518-97.846-26.518-107.536 0-194.708 87.746-194.708 195.99h-201.258c0.266-33.41-8.074-67.282-25.958-98.252-53.724-93.056-173.156-124.702-266.862-70.758l-100.624-174.292c28.97-16.472 54.050-40.588 71.886-71.478 53.638-92.908 21.512-211.92-71.708-266.224l100.626-174.292c28.65 16.696 61.916 26.254 97.4 26.254 107.196 0 194.144-87.192 194.7-194.958h201.254c-0.086 33.074 8.272 66.57 25.966 97.218 53.636 92.906 172.776 124.594 266.414 71.012l100.626 174.29c-28.78 16.466-53.692 40.498-71.434 71.228zM512 240.668c-114.508 0-207.336 92.824-207.336 207.334 0 114.508 92.826 207.334 207.336 207.334 114.508 0 207.332-92.826 207.332-207.334-0.002-114.51-92.824-207.334-207.332-207.334z"/>
<glyph unicode="" glyph-name="menu" d="M64 768h896v-192h-896zM64 512h896v-192h-896zM64 256h896v-192h-896z"/>
<glyph unicode="" glyph-name="play" d="M192 832l640-384-640-384z"/>
<glyph unicode="" glyph-name="pause" d="M128 832h320v-768h-320zM576 832h320v-768h-320z"/>
<glyph unicode="" glyph-name="google-plus" d="M928 960h-832c-52.8 0-96-43.2-96-96v-832c0-52.8 43.2-96 96-96h832c52.8 0 96 43.2 96 96v832c0 52.8-43.2 96-96 96zM384 192c-141.6 0-256 114.4-256 256s114.4 256 256 256c69.2 0 127-25.2 171.6-67l-69.6-66.8c-19 18.2-52.2 39.4-102 39.4-87.4 0-158.8-72.4-158.8-161.6s71.4-161.6 158.8-161.6c101.4 0 139.4 72.8 145.2 110.4h-145.2v87.8h241.8c2.2-12.8 4-25.6 4-42.4 0-146.4-98-250.2-245.8-250.2zM896 448h-64v-64h-64v64h-64v64h64v64h64v-64h64v-64z"/>
<glyph unicode="" glyph-name="rss" d="M928 960h-832c-52.8 0-96-43.2-96-96v-832c0-52.8 43.2-96 96-96h832c52.8 0 96 43.2 96 96v832c0 52.8-43.2 96-96 96zM279 128.8c-48 0-87 38.6-87 86.6 0 47.6 39 86.8 87 86.8 48.2 0 87-39.2 87-86.8 0-48-39-86.6-87-86.6zM497.4 128c0 81.8-31.8 158.8-89.4 216.4-57.8 57.8-134.4 89.6-216 89.6v125.2c237.6 0 431.2-193.4 431.2-431.2h-125.8zM719.6 128c0 291-236.6 528-527.4 528v125.2c360 0 653-293.2 653-653.2h-125.6z"/>
<glyph unicode="" glyph-name="flickr" d="M928 960h-832c-52.8 0-96-43.2-96-96v-832c0-52.8 43.2-96 96-96h832c52.8 0 96 43.2 96 96v832c0 52.8-43.2 96-96 96zM288 288c-88.4 0-160 71.6-160 160s71.6 160 160 160 160-71.6 160-160-71.6-160-160-160zM736 288c-88.4 0-160 71.6-160 160s71.6 160 160 160c88.4 0 160-71.6 160-160s-71.6-160-160-160z"/>
<glyph unicode="" glyph-name="wiki" d="M966.8 726.4c0-3.2-1-6.2-3-9-2-2.6-4.2-4-6.8-4-20-2-36.4-8.4-49-19.2-12.8-10.8-25.8-31.8-39.2-62.4l-206.4-465.4c-1.4-4.4-5.2-6.4-11.4-6.4-4.8 0-8.6 2.2-11.4 6.4l-115.8 242-133.2-242c-2.8-4.4-6.4-6.4-11.4-6.4-6 0-9.8 2.2-11.8 6.4l-202.6 465.2c-12.6 28.8-26 49-40 60.4s-33.6 18.6-58.6 21.2c-2.2 0-4.2 1.2-6 3.4-2 2.2-2.8 4.8-2.8 7.8 0 7.6 2.2 11.4 6.4 11.4 18 0 37-0.8 56.8-2.4 18.4-1.6 35.6-2.4 51.8-2.4 16.4 0 36 0.8 58.4 2.4 23.4 1.6 44.2 2.4 62.4 2.4 4.4 0 6.4-3.8 6.4-11.4s-1.4-11.2-4-11.2c-18-1.4-32.4-6-42.8-13.8s-15.6-18-15.6-30.8c0-6.4 2.2-14.6 6.4-24.2l167.4-378.4 95.2 179.6-88.6 185.8c-16 33.2-29 54.6-39.2 64.2s-25.8 15.4-46.6 17.6c-2 0-3.6 1.2-5.4 3.4s-2.6 4.8-2.6 7.8c0 7.6 1.8 11.4 5.6 11.4 18 0 34.6-0.8 49.8-2.4 14.6-1.6 30-2.4 46.6-2.4 16.2 0 33.2 0.8 51.4 2.4 18.6 1.6 37 2.4 55 2.4 4.4 0 6.4-3.8 6.4-11.4s-1.2-11.2-4-11.2c-36.2-2.4-54.2-12.8-54.2-30.8 0-8 4.2-20.6 12.6-37.6l58.6-119 58.4 108.8c8 15.4 12.2 28.4 12.2 38.8 0 24.8-18 38-54.2 39.6-3.2 0-4.8 3.8-4.8 11.2 0 2.8 0.8 5.2 2.4 7.6s3.2 3.6 4.8 3.6c13 0 28.8-0.8 47.8-2.4 18-1.6 33-2.4 44.6-2.4 8.4 0 20.6 0.8 36.8 2 20.4 1.8 37.6 2.8 51.4 2.8 3.2 0 4.8-3.2 4.8-9.6 0-8.6-3-13-8.8-13-21-2.2-38-8-50.8-17.4s-28.8-30.8-48-64.4l-78.2-143.2 105.2-214.4 155.4 361.4c5.4 13.2 8 25.4 8 36.4 0 26.4-18 40.4-54.2 42.2-3.2 0-4.8 3.8-4.8 11.2 0 7.6 2.4 11.4 7.2 11.4 13.2 0 28.8-0.8 47-2.4 16.8-1.6 30.8-2.4 42-2.4 12 0 25.6 0.8 41.2 2.4 16.2 1.6 30.8 2.4 43.8 2.4 4 0 6-3.2 6-9.6z"/>
<glyph unicode="" glyph-name="search" horiz-adv-x="951" d="M658.286 475.428q0 105.714-75.143 180.857t-180.857 75.143-180.857-75.143-75.143-180.857 75.143-180.857 180.857-75.143 180.857 75.143 75.143 180.857zM950.857 0q0-29.714-21.714-51.429t-51.429-21.714q-30.857 0-51.429 21.714l-196 195.429q-102.286-70.857-228-70.857-81.714 0-156.286 31.714t-128.571 85.714-85.714 128.571-31.714 156.286 31.714 156.286 85.714 128.571 128.571 85.714 156.286 31.714 156.286-31.714 128.571-85.714 85.714-128.571 31.714-156.286q0-125.714-70.857-228l196-196q21.143-21.143 21.143-51.429z"/>
<glyph unicode="" glyph-name="mail" d="M950.857 91.428v438.857q-18.286-20.571-39.429-37.714-153.143-117.714-243.429-193.143-29.143-24.571-47.429-38.286t-49.429-27.714-58.571-14h-1.143q-27.429 0-58.571 14t-49.429 27.714-47.429 38.286q-90.286 75.429-243.429 193.143-21.143 17.143-39.429 37.714v-438.857q0-7.429 5.429-12.857t12.857-5.429h841.143q7.429 0 12.857 5.429t5.429 12.857zM950.857 692v14t-0.286 7.429-1.714 7.143-3.143 5.143-5.143 4.286-8 1.429h-841.143q-7.429 0-12.857-5.429t-5.429-12.857q0-96 84-162.286 110.286-86.857 229.143-181.143 3.429-2.857 20-16.857t26.286-21.429 25.429-18 28.857-15.714 24.571-5.143h1.143q11.429 0 24.571 5.143t28.857 15.714 25.429 18 26.286 21.429 20 16.857q118.857 94.286 229.143 181.143 30.857 24.571 57.429 66t26.571 75.143zM1024 713.143v-621.714q0-37.714-26.857-64.571t-64.571-26.857h-841.143q-37.714 0-64.571 26.857t-26.857 64.571v621.714q0 37.714 26.857 64.571t64.571 26.857h841.143q37.714 0 64.571-26.857t26.857-64.571z"/>
<glyph unicode="" glyph-name="star" horiz-adv-x="951" d="M950.857 581.143q0-12.571-14.857-27.429l-207.429-202.286 49.143-285.714q0.571-4 0.571-11.429 0-12-6-20.286t-17.429-8.286q-10.857 0-22.857 6.857l-256.571 134.857-256.571-134.857q-12.571-6.857-22.857-6.857-12 0-18 8.286t-6 20.286q0 3.429 1.143 11.429l49.143 285.714-208 202.286q-14.286 15.429-14.286 27.429 0 21.143 32 26.286l286.857 41.714 128.571 260q10.857 23.429 28 23.429t28-23.429l128.571-260 286.857-41.714q32-5.143 32-26.286z"/>
<glyph unicode="" glyph-name="star-open" horiz-adv-x="951" d="M649.714 377.143l174.857 169.714-241.143 35.429-108 218.286-108-218.286-241.143-35.429 174.857-169.714-41.714-240.571 216 113.714 215.429-113.714zM950.857 581.143q0-12.571-14.857-27.429l-207.429-202.286 49.143-285.714q0.571-4 0.571-11.429 0-28.571-23.429-28.571-10.857 0-22.857 6.857l-256.571 134.857-256.571-134.857q-12.571-6.857-22.857-6.857-12 0-18 8.286t-6 20.286q0 3.429 1.143 11.429l49.143 285.714-208 202.286q-14.286 15.429-14.286 27.429 0 21.143 32 26.286l286.857 41.714 128.571 260q10.857 23.429 28 23.429t28-23.429l128.571-260 286.857-41.714q32-5.143 32-26.286z"/>
<glyph unicode="" glyph-name="user" horiz-adv-x="821" d="M409.6 413.867c150.905 0 206.596 152.702 220.968 276.66 17.965 154.498-55.691 269.474-220.968 269.474s-237.137-114.975-219.172-269.474c14.372-123.958 68.267-276.66 219.172-276.66v0zM820.996 52.772c-1.796 48.505-7.186 97.011-16.168 145.516-10.779 57.488-23.354 141.923-73.656 179.649-28.744 21.558-66.47 28.744-100.604 41.319-16.168 7.186-30.54 12.575-44.912 19.761-46.709-50.302-105.993-77.249-176.056-77.249s-129.347 26.947-176.056 77.249c-14.372-7.186-28.744-14.372-44.912-19.761-34.133-12.575-71.86-19.761-100.604-41.319-50.302-37.726-62.877-122.161-73.656-179.649-8.982-48.505-14.372-97.011-16.168-145.516-1.796-37.726 17.965-43.116 48.505-53.895 39.523-14.372 79.046-25.151 120.365-34.133 79.046-16.168 159.888-28.744 240.73-30.54 80.842 0 161.684 12.575 240.73 30.54 41.319 8.982 80.842 19.761 120.365 34.133 34.133 10.779 52.098 16.168 52.098 53.895v0z"/>
<glyph unicode="" glyph-name="check" d="M954.857 627.428q0-22.857-16-38.857l-491.429-491.429q-16-16-38.857-16t-38.857 16l-284.571 284.571q-16 16-16 38.857t16 38.857l77.714 77.714q16 16 38.857 16t38.857-16l168-168.571 374.857 375.429q16 16 38.857 16t38.857-16l77.714-77.714q16-16 16-38.857z"/>
<glyph unicode="" glyph-name="close" horiz-adv-x="805" d="M741.714 195.428q0-22.857-16-38.857l-77.714-77.714q-16-16-38.857-16t-38.857 16l-168 168-168-168q-16-16-38.857-16t-38.857 16l-77.714 77.714q-16 16-16 38.857t16 38.857l168 168-168 168q-16 16-16 38.857t16 38.857l77.714 77.714q16 16 38.857 16t38.857-16l168-168 168 168q16 16 38.857 16t38.857-16l77.714-77.714q16-16 16-38.857t-16-38.857l-168-168 168-168q16-16 16-38.857z"/>
<glyph unicode="" glyph-name="reset" d="M877.714 804.571v-256q0-14.857-10.857-25.714t-25.714-10.857h-256q-24 0-33.714 22.857-9.714 22.286 8 39.429l78.857 78.857q-84.571 78.286-199.429 78.286-59.429 0-113.429-23.143t-93.429-62.571-62.571-93.429-23.143-113.429 23.143-113.429 62.571-93.429 93.429-62.571 113.429-23.143q68 0 128.571 29.714t102.286 84q4 5.714 13.143 6.857 8 0 14.286-5.143l78.286-78.857q5.143-4.571 5.429-11.714t-4.286-12.857q-62.286-75.429-150.857-116.857t-186.857-41.429q-89.143 0-170.286 34.857t-140 93.714-93.714 140-34.857 170.286 34.857 170.286 93.714 140 140 93.714 170.286 34.857q84 0 162.571-31.714t139.714-89.429l74.286 73.714q16.571 17.714 40 8 22.286-9.714 22.286-33.714z"/>
<glyph unicode="" glyph-name="lock" horiz-adv-x="658" d="M182.857 512h292.571v109.714q0 60.571-42.857 103.429t-103.429 42.857-103.429-42.857-42.857-103.429v-109.714zM658.286 457.143v-329.143q0-22.857-16-38.857t-38.857-16h-548.571q-22.857 0-38.857 16t-16 38.857v329.143q0 22.857 16 38.857t38.857 16h18.286v109.714q0 105.143 75.429 180.571t180.571 75.429 180.571-75.429 75.429-180.571v-109.714h18.286q22.857 0 38.857-16t16-38.857z"/>
<glyph unicode="" glyph-name="printer" horiz-adv-x="951" d="M219.429 73.143h512v146.286h-512v-146.286zM219.429 438.857h512v219.429h-91.429q-22.857 0-38.857 16t-16 38.857v91.429h-365.714v-365.714zM877.714 402.286q0 14.857-10.857 25.714t-25.714 10.857-25.714-10.857-10.857-25.714 10.857-25.714 25.714-10.857 25.714 10.857 10.857 25.714zM950.857 402.286v-237.714q0-7.429-5.429-12.857t-12.857-5.429h-128v-91.429q0-22.857-16-38.857t-38.857-16h-548.571q-22.857 0-38.857 16t-16 38.857v91.429h-128q-7.429 0-12.857 5.429t-5.429 12.857v237.714q0 45.143 32.286 77.429t77.429 32.286h36.571v310.857q0 22.857 16 38.857t38.857 16h384q22.857 0 50.286-11.429t43.429-27.429l86.857-86.857q16-16 27.429-43.429t11.429-50.286v-146.286h36.571q45.143 0 77.429-32.286t32.286-77.429z"/>
<glyph unicode="" glyph-name="pencil" d="M207.429 73.143l52 52-134.286 134.286-52-52v-61.143h73.143v-73.143h61.143zM506.286 603.428q0 12.571-12.571 12.571-5.714 0-9.714-4l-309.714-309.714q-4-4-4-9.714 0-12.571 12.571-12.571 5.714 0 9.714 4l309.714 309.714q4 4 4 9.714zM475.429 713.143l237.714-237.714-475.429-475.429h-237.714v237.714zM865.714 658.286q0-30.286-21.143-51.429l-94.857-94.857-237.714 237.714 94.857 94.286q20.571 21.714 51.429 21.714 30.286 0 52-21.714l134.286-133.714q21.143-22.286 21.143-52z"/>
<glyph unicode="" glyph-name="marker" horiz-adv-x="585" d="M438.857 585.143q0 60.571-42.857 103.429t-103.429 42.857-103.429-42.857-42.857-103.429 42.857-103.429 103.429-42.857 103.429 42.857 42.857 103.429zM585.143 585.143q0-62.286-18.857-102.286l-208-442.286q-9.143-18.857-27.143-29.714t-38.571-10.857-38.571 10.857-26.571 29.714l-208.571 442.286q-18.857 40-18.857 102.286 0 121.143 85.714 206.857t206.857 85.714 206.857-85.714 85.714-206.857z"/>
<glyph unicode="" glyph-name="check-square" horiz-adv-x="951" d="M804.571 419.428v-181.714q0-68-48.286-116.286t-116.286-48.286h-475.429q-68 0-116.286 48.286t-48.286 116.286v475.429q0 68 48.286 116.286t116.286 48.286h475.429q36 0 66.857-14.286 8.571-4 10.286-13.143 1.714-9.714-5.143-16.571l-28-28q-5.714-5.714-13.143-5.714-1.714 0-5.143 1.143-13.143 3.429-25.714 3.429h-475.429q-37.714 0-64.571-26.857t-26.857-64.571v-475.429q0-37.714 26.857-64.571t64.571-26.857h475.429q37.714 0 64.571 26.857t26.857 64.571v145.143q0 7.429 5.143 12.571l36.571 36.571q5.714 5.714 13.143 5.714 3.429 0 6.857-1.714 11.429-4.571 11.429-16.571zM936.571 698.857l-465.143-465.143q-13.714-13.714-32.571-13.714t-32.571 13.714l-245.714 245.714q-13.714 13.714-13.714 32.571t13.714 32.571l62.857 62.857q13.714 13.714 32.571 13.714t32.571-13.714l150.286-150.286 369.714 369.714q13.714 13.714 32.571 13.714t32.571-13.714l62.857-62.857q13.714-13.714 13.714-32.571t-13.714-32.571z"/>
<glyph unicode="" glyph-name="warn" d="M585.143 165.143v108.571q0 8-5.429 13.429t-12.857 5.429h-109.714q-7.429 0-12.857-5.429t-5.429-13.429v-108.571q0-8 5.429-13.429t12.857-5.429h109.714q7.429 0 12.857 5.429t5.429 13.429zM584 378.857l10.286 262.286q0 6.857-5.714 10.857-7.429 6.286-13.714 6.286h-125.714q-6.286 0-13.714-6.286-5.714-4-5.714-12l9.714-261.143q0-5.714 5.714-9.429t13.714-3.714h105.714q8 0 13.429 3.714t6 9.429zM576 912.571l438.857-804.571q20-36-1.143-72-9.714-16.571-26.571-26.286t-36.286-9.714h-877.714q-19.429 0-36.286 9.714t-26.571 26.286q-21.143 36-1.143 72l438.857 804.571q9.714 17.714 26.857 28t37.143 10.286 37.143-10.286 26.857-28z"/>
<glyph unicode="" glyph-name="external-link" d="M804.571 420.571v-182.857q0-68-48.286-116.286t-116.286-48.286h-475.429q-68 0-116.286 48.286t-48.286 116.286v475.429q0 68 48.286 116.286t116.286 48.286h402.286q8 0 13.143-5.143t5.143-13.143v-36.571q0-8-5.143-13.143t-13.143-5.143h-402.286q-37.714 0-64.571-26.857t-26.857-64.571v-475.429q0-37.714 26.857-64.571t64.571-26.857h475.429q37.714 0 64.571 26.857t26.857 64.571v182.857q0 8 5.143 13.143t13.143 5.143h36.571q8 0 13.143-5.143t5.143-13.143zM1024 914.286v-292.571q0-14.857-10.857-25.714t-25.714-10.857-25.714 10.857l-100.571 100.571-372.571-372.571q-5.714-5.714-13.143-5.714t-13.143 5.714l-65.143 65.143q-5.714 5.714-5.714 13.143t5.714 13.143l372.571 372.571-100.571 100.571q-10.857 10.857-10.857 25.714t10.857 25.714 25.714 10.857h292.571q14.857 0 25.714-10.857t10.857-25.714z"/>
<glyph unicode="" glyph-name="link" horiz-adv-x="951" d="M832 256q0 22.857-16 38.857l-118.857 118.857q-16 16-38.857 16-24 0-41.143-18.286 1.714-1.714 10.857-10.571t12.286-12.286 8.571-10.857 7.429-14.571 2-15.714q0-22.857-16-38.857t-38.857-16q-8.571 0-15.714 2t-14.571 7.429-10.857 8.571-12.286 12.286-10.571 10.857q-18.857-17.714-18.857-41.714 0-22.857 16-38.857l117.714-118.286q15.429-15.429 38.857-15.429 22.857 0 38.857 14.857l84 83.429q16 16 16 38.286zM430.286 658.857q0 22.857-16 38.857l-117.714 118.286q-16 16-38.857 16-22.286 0-38.857-15.429l-84-83.429q-16-16-16-38.286 0-22.857 16-38.857l118.857-118.857q15.429-15.429 38.857-15.429 24 0 41.143 17.714-1.714 1.714-10.857 10.571t-12.286 12.286-8.571 10.857-7.429 14.571-2 15.714q0 22.857 16 38.857t38.857 16q8.571 0 15.714-2t14.571-7.429 10.857-8.571 12.286-12.286 10.571-10.857q18.857 17.714 18.857 41.714zM941.714 256q0-68.571-48.571-116l-84-83.429q-47.429-47.429-116-47.429-69.143 0-116.571 48.571l-117.714 118.286q-47.429 47.429-47.429 116 0 70.286 50.286 119.429l-50.286 50.286q-49.143-50.286-118.857-50.286-68.571 0-116.571 48l-118.857 118.857q-48 48-48 116.571t48.571 116l84 83.429q47.429 47.429 116 47.429 69.143 0 116.571-48.571l117.714-118.286q47.429-47.429 47.429-116 0-70.286-50.286-119.429l50.286-50.286q49.143 50.286 118.857 50.286 68.571 0 116.571-48l118.857-118.857q48-48 48-116.571z"/>
<glyph unicode="" glyph-name="caret-down" horiz-adv-x="585" d="M585.143 548.571q0-14.857-10.857-25.714l-256-256q-10.857-10.857-25.714-10.857t-25.714 10.857l-256 256q-10.857 10.857-10.857 25.714t10.857 25.714 25.714 10.857h512q14.857 0 25.714-10.857t10.857-25.714z"/>
<glyph unicode="" glyph-name="caret-up" horiz-adv-x="585" d="M585.143 256q0-14.857-10.857-25.714t-25.714-10.857h-512q-14.857 0-25.714 10.857t-10.857 25.714 10.857 25.714l256 256q10.857 10.857 25.714 10.857t25.714-10.857l256-256q10.857-10.857 10.857-25.714z"/>
<glyph unicode="" glyph-name="caret-right" horiz-adv-x="366" d="M329.143 438.857q0-14.857-10.857-25.714l-256-256q-10.857-10.857-25.714-10.857t-25.714 10.857-10.857 25.714v512q0 14.857 10.857 25.714t25.714 10.857 25.714-10.857l256-256q10.857-10.857 10.857-25.714z"/>
<glyph unicode="" glyph-name="caret-left" horiz-adv-x="366" d="M36.857 438.857q0-14.857 10.857-25.714l256-256q10.857-10.857 25.714-10.857t25.714 10.857 10.857 25.714v512q0 14.857-10.857 25.714t-25.714 10.857-25.714-10.857l-256-256q-10.857-10.857-10.857-25.714z"/>
<glyph unicode="" glyph-name="angle-left" horiz-adv-x="366" d="M358.286 640q0-7.429-5.714-13.143l-224.571-224.571 224.571-224.571q5.714-5.714 5.714-13.143t-5.714-13.143l-28.571-28.571q-5.714-5.714-13.143-5.714t-13.143 5.714l-266.286 266.286q-5.714 5.714-5.714 13.143t5.714 13.143l266.286 266.286q5.714 5.714 13.143 5.714t13.143-5.714l28.571-28.571q5.714-5.714 5.714-13.143z"/>
<glyph unicode="" glyph-name="angle-right" horiz-adv-x="366" d="M340 402.286q0-7.429-5.714-13.143l-266.286-266.286q-5.714-5.714-13.143-5.714t-13.143 5.714l-28.571 28.571q-5.714 5.714-5.714 13.143t5.714 13.143l224.571 224.571-224.571 224.571q-5.714 5.714-5.714 13.143t5.714 13.143l28.571 28.571q5.714 5.714 13.143 5.714t13.143-5.714l266.286-266.286q5.714-5.714 5.714-13.143z"/>
<glyph unicode="" glyph-name="angle-down" horiz-adv-x="574" d="M287.002 281.718q-7.429 0-13.143 5.714l-266.286 266.286q-5.714 5.714-5.714 13.143t5.714 13.143l28.571 28.571q5.714 5.714 13.143 5.714t13.143-5.714l224.571-224.571 224.571 224.571q5.714 5.714 13.143 5.714t13.143-5.714l28.571-28.571q5.714-5.714 5.714-13.143t-5.714-13.143l-266.286-266.286q-5.714-5.714-13.143-5.714z"/>
<glyph unicode="" glyph-name="lock-open" horiz-adv-x="658" d="M603.429 512q22.857 0 38.857-16t16-38.857v-329.143q0-22.857-16-38.857t-38.857-16h-548.571q-22.857 0-38.857 16t-16 38.857v329.143q0 22.857 16 38.857t38.857 16h18.286v182.857q0 105.714 75.143 180.857t180.857 75.143 180.857-75.143 75.143-180.857q0-14.857-10.857-25.714t-25.714-10.857h-36.571q-14.857 0-25.714 10.857t-10.857 25.714q0 60.571-42.857 103.429t-103.429 42.857-103.429-42.857-42.857-103.429v-182.857h420.571z"/>
<glyph unicode="" glyph-name="thumbs-up" horiz-adv-x="951" d="M146.286 182.857q0 14.857-10.857 25.714t-25.714 10.857q-15.429 0-26-10.857t-10.571-25.714q0-15.429 10.571-26t26-10.571q14.857 0 25.714 10.571t10.857 26zM237.714 475.428v-365.714q0-14.857-10.857-25.714t-25.714-10.857h-164.571q-14.857 0-25.714 10.857t-10.857 25.714v365.714q0 14.857 10.857 25.714t25.714 10.857h164.571q14.857 0 25.714-10.857t10.857-25.714zM914.286 475.428q0-49.143-31.429-85.143 8.571-25.143 8.571-43.429 1.714-43.429-24.571-78.286 9.714-32 0-66.857-8.571-32.571-30.857-53.714 5.143-64-28-103.429-36.571-43.429-112.571-44.571h-73.714q-37.714 0-82.286 8.857t-69.429 16.571-68.857 22.571q-70.286 24.571-90.286 25.143-14.857 0.571-25.714 11.143t-10.857 25.429v366.286q0 14.286 10.286 24.857t24.571 11.714q13.714 1.143 43.429 33.714t57.714 69.143q38.857 49.714 57.714 68.571 10.286 10.286 17.714 27.429t10 27.714 7.714 34.571q4 22.286 7.143 34.857t11.143 29.714 19.429 28.571q10.857 10.857 25.714 10.857 26.286 0 47.143-6t34.286-14.857 22.857-23.143 13.714-25.714 6.857-28.571 2.857-25.714 0.286-22.286q0-21.714-5.429-43.429t-10.857-34.286-15.714-32q-1.714-3.429-5.714-10.286t-6.286-12.571-4.571-13.714h158.286q44.571 0 77.143-32.571t32.571-77.143z"/>
<glyph unicode="" glyph-name="thumbs-down" horiz-adv-x="951" d="M146.286 621.714q0-14.857-10.857-25.714t-25.714-10.857q-15.429 0-26 10.857t-10.571 25.714q0 15.429 10.571 26t26 10.571q14.857 0 25.714-10.571t10.857-26zM237.714 329.143v365.714q0 14.857-10.857 25.714t-25.714 10.857h-164.571q-14.857 0-25.714-10.857t-10.857-25.714v-365.714q0-14.857 10.857-25.714t25.714-10.857h164.571q14.857 0 25.714 10.857t10.857 25.714zM882.857 414.286q31.429-34.857 31.429-85.143-0.571-44.571-32.857-77.143t-76.857-32.571h-158.286q2.286-8 4.571-13.714t6.286-12.571 5.714-10.286q10.286-21.143 15.429-32.571t10.857-33.429 5.714-43.714q0-13.714-0.286-22.286t-2.857-25.714-6.857-28.571-13.714-25.714-22.857-23.143-34.286-14.857-47.143-6q-14.857 0-25.714 10.857-11.429 11.429-19.429 28.571t-11.143 29.714-7.143 34.857q-5.143 24-7.714 34.571t-10 27.714-17.714 27.429q-18.857 18.857-57.714 68.571-28 36.571-57.714 69.143t-43.429 33.714q-14.286 1.143-24.571 11.714t-10.286 24.857v366.286q0 14.857 10.857 25.429t25.714 11.143q20 0.571 90.286 25.143 44 14.857 68.857 22.571t69.429 16.571 82.286 8.857h73.714q76-1.143 112.571-44.571 33.143-39.429 28-103.429 22.286-21.143 30.857-53.714 9.714-34.857 0-66.857 26.286-34.857 24.571-78.286 0-18.286-8.571-43.429z"/>
</font>
</defs>
</svg>
